<svg xmlns="http://www.w3.org/2000/svg" xmlns:xlink="http://www.w3.org/1999/xlink" width="164pt" height="48pt" viewBox="0 0 164 48" version="1.1"><div xmlns="" id="in-page-channel-node-id" data-channel-name="in_page_channel_d1_jwf"/>
    <g id="surface21">
        <path style="fill:none;stroke-width:2;stroke-linecap:butt;stroke-linejoin:miter;stroke:rgb(0%,78.431373%,32.54902%);stroke-opacity:1;stroke-miterlimit:10;" d="M 0 24.960938 L 1.65625 46.558594 L 3.3125 42.71875 L 4.96875 32.160156 L 6.625 6.238281 L 8.28125 8.160156 L 9.9375 10.558594 L 11.597656 15.839844 L 13.253906 41.28125 L 14.910156 48 L 16.566406 45.121094 L 18.222656 10.078125 L 19.878906 7.679688 L 21.535156 15.839844 L 23.191406 40.320312 L 24.847656 12.480469 L 26.503906 2.878906 L 28.160156 1.441406 L 29.816406 15.839844 L 31.476562 7.199219 L 33.132812 18.238281 L 34.789062 19.199219 L 36.445312 4.800781 L 38.101562 47.039062 L 39.757812 44.160156 L 41.414062 39.359375 L 43.070312 39.839844 L 44.726562 1.441406 L 46.382812 30.71875 L 48.039062 22.558594 L 49.695312 7.679688 L 51.355469 7.199219 L 53.011719 29.28125 L 54.667969 5.761719 L 56.324219 48 L 57.980469 44.640625 L 59.636719 8.640625 L 61.292969 44.640625 L 62.949219 10.078125 L 64.605469 47.039062 L 66.261719 18.238281 L 67.917969 13.441406 L 69.574219 42.71875 L 71.230469 5.761719 L 72.890625 0.480469 L 74.546875 15.839844 L 76.203125 28.320312 L 77.859375 19.679688 L 79.515625 9.121094 L 81.171875 43.199219 L 82.828125 24.480469 L 84.484375 34.078125 L 86.140625 43.679688 L 87.796875 43.199219 L 89.453125 28.800781 L 91.109375 40.800781 L 92.769531 8.160156 L 94.425781 12.480469 L 96.082031 43.199219 L 97.738281 44.640625 L 99.394531 11.519531 L 101.050781 45.601562 L 102.707031 25.441406 L 104.363281 0.480469 L 106.019531 18.71875 L 107.675781 2.878906 L 109.332031 21.601562 L 110.988281 0.480469 L 112.644531 2.398438 L 114.304688 40.800781 L 115.960938 27.839844 L 117.617188 37.441406 L 119.273438 39.359375 L 120.929688 9.601562 L 122.585938 23.039062 L 124.242188 33.121094 L 125.898438 26.878906 L 127.554688 0.960938 L 129.210938 27.359375 L 130.867188 13.441406 L 132.523438 1.441406 L 134.183594 11.039062 L 135.839844 5.761719 L 137.496094 24.960938 L 139.152344 15.839844 L 140.808594 28.800781 L 142.464844 34.558594 L 144.121094 0.960938 L 145.777344 47.519531 L 147.433594 36 L 149.089844 15.359375 L 150.746094 2.878906 L 152.402344 22.558594 L 154.0625 20.160156 L 155.71875 37.921875 L 157.375 12.960938 L 159.03125 44.640625 L 160.6875 43.679688 L 162.34375 7.199219 L 164 46.078125 "/>
    </g>
</svg>
